# xmcd
#
# Track frame offsets: 
#        150
#        13905
#        38530
#        60587
#        82990
#        116968
#        142826
#        163417
#        193578
#        223267
#
# Disc length: 4060 seconds
#
# Revision: 3
# Processed by: cddbd v1.5.2PL0 Copyright (c) Steve Scherf et al.
# Submitted via: ExactAudioCopy v0.99pb4
#
DISCID=8c0fda0a
DTITLE=GARY MOORE - dark day in paradise
DYEAR=1900
DGENRE=
TTITLE0=ONE GOOD REASON
TTITLE1=COLD WIND BLOWS
TTITLE2=I HAVE FOUND MY LOVE IN YOU
TTITLE3=ONE FIND DAY
TTITLE4=LIKE ANGELS
TTITLE5=WHAT ARE WE HERE FOR ¿
TTITLE6=ALWAYS THERE FOR YOU
TTITLE7=AFRAID OF TOMORROW
TTITLE8=WHERE DID WE GO WRONG ¿
TTITLE9=BUSINESS AS USUAL
EXTD=
EXTT0=
EXTT1=
EXTT2=
EXTT3=
EXTT4=
EXTT5=
EXTT6=
EXTT7=
EXTT8=
EXTT9=
PLAYORDER=
